<?xml version="1.0" encoding="UTF-8"?>
<!DOCTYPE svg PUBLIC "-//W3C//DTD SVG 1.1//EN" "http://www.w3.org/Graphics/SVG/1.1/DTD/svg11.dtd">
<!-- Creator: CorelDRAW X7 -->
<svg xmlns="http://www.w3.org/2000/svg" xml:space="preserve" width="215.9mm" height="279.4mm" version="1.1" style="shape-rendering:geometricPrecision; text-rendering:geometricPrecision; image-rendering:optimizeQuality; fill-rule:evenodd; clip-rule:evenodd"
viewBox="0 0 21590 27940"
 xmlns:xlink="http://www.w3.org/1999/xlink">
 <defs>
  <style type="text/css">
   <![CDATA[
    .fil0 {fill:#FF7800}
   ]]>
  </style>
 </defs>
 <g id="Capa_x0020_1">
  <metadata id="CorelCorpID_0Corel-Layer"/>
  <path class="fil0" d="M9538 13400c148,0 268,120 268,269 0,148 -120,269 -268,269 -149,0 -269,-121 -269,-269 0,-149 120,-269 269,-269zm304 514l95 96c20,20 23,50 7,67l0 0c-17,16 -47,13 -67,-7l-95 -95 60 -61zm-38 -72l156 157c26,26 26,68 0,94l0 0c-26,26 -68,26 -94,0l-157 -156c-49,31 -108,50 -171,50 -176,0 -319,-142 -319,-318 0,-176 143,-318 319,-318 102,0 194,49 252,124l19 -19c-5,-8 -8,-18 -8,-28 0,-29 23,-52 52,-52 24,0 45,16 50,39l76 0 0 23 -75 0c-5,24 -26,42 -51,42 -10,0 -19,-3 -27,-7l-22 22c33,50 52,110 52,174 0,64 -19,124 -52,173zm-75 81l33 33 61 -61 -33 -33c-18,23 -38,44 -61,61zm-426 -305l49 0c6,-23 27,-40 51,-40 29,0 52,24 52,52 0,11 -3,20 -8,28l53 53c8,-5 17,-7 27,-7 11,0 20,3 29,8l79 -79c-6,-9 -9,-19 -9,-30 0,-29 23,-52 52,-52 11,0 21,3 29,8l28 -27c-44,-62 -116,-103 -197,-103 -115,0 -211,81 -235,189zm49 23l-53 0c-1,9 -1,19 -1,28 0,132 107,240 240,240 132,0 239,-108 239,-240 0,-42 -11,-82 -30,-116l-24 24c5,7 7,16 7,26 0,29 -23,52 -52,52 -9,0 -18,-2 -25,-6l-81 80c5,8 7,17 7,27 0,29 -23,52 -52,52 -29,0 -52,-23 -52,-52 0,-11 3,-20 8,-28l-53 -53c-8,5 -17,8 -27,8 -25,0 -46,-18 -51,-42zm501 -240c15,0 27,12 27,27 0,15 -12,27 -27,27 -15,0 -27,-12 -27,-27 0,-15 12,-27 27,-27zm-315 -27c162,0 294,132 294,295 0,163 -132,295 -294,295 -163,0 -295,-132 -295,-295 0,-163 132,-295 295,-295zm140 202c15,0 27,12 27,27 0,15 -12,27 -27,27 -14,0 -26,-12 -26,-27 0,-15 12,-27 26,-27zm-151 153c15,0 27,12 27,27 0,15 -12,26 -27,26 -15,0 -27,-11 -27,-26 0,-15 12,-27 27,-27zm-124 -125c15,0 27,12 27,26 0,15 -12,27 -27,27 -15,0 -27,-12 -27,-27 0,-14 12,-26 27,-26z"/>
 </g>
</svg>
