<?xml version="1.0" encoding="UTF-8"?>
<!DOCTYPE svg PUBLIC "-//W3C//DTD SVG 1.1//EN" "http://www.w3.org/Graphics/SVG/1.1/DTD/svg11.dtd">
<!-- Creator: CorelDRAW X7 -->
<svg xmlns="http://www.w3.org/2000/svg" xml:space="preserve" width="215.9mm" height="279.4mm" version="1.1" style="shape-rendering:geometricPrecision; text-rendering:geometricPrecision; image-rendering:optimizeQuality; fill-rule:evenodd; clip-rule:evenodd"
viewBox="0 0 21590 27940"
 xmlns:xlink="http://www.w3.org/1999/xlink">
 <defs>
  <style type="text/css">
   <![CDATA[
    .fil0 {fill:#F58634}
   ]]>
  </style>
 </defs>
 <g id="Capa_x0020_1">
  <metadata id="CorelCorpID_0Corel-Layer"/>
  <path class="fil0" d="M9469 11190l96 -35 226 -254c7,-10 15,-19 24,-26l0 0 0 0c6,-4 12,-8 19,-10 77,-28 189,83 249,249 61,165 47,323 -31,351 -10,4 -21,5 -32,4l0 0 0 0c-9,-1 -18,-3 -27,-6l-281 -65 82 224c15,42 -7,88 -49,104l0 0c-41,15 -88,-7 -103,-49l-91 -248c-64,21 -134,-13 -158,-77l0 0c-23,-65 10,-138 76,-162zm407 -119c56,-21 118,8 138,64 20,56 -8,118 -64,138 -9,3 -17,5 -25,6l-18 -49c8,1 17,0 26,-3 30,-11 46,-45 35,-75 -11,-30 -45,-46 -75,-35 -9,3 -16,8 -22,14l-18 -49c7,-4 15,-8 23,-11zm256 -103l43 -157c3,-11 15,-18 27,-14l0 0c11,3 18,15 14,26l-43 156c-3,11 -15,18 -26,15l0 0c-12,-3 -18,-15 -15,-26zm87 93l152 -55c11,-4 24,2 28,13l0 0c4,11 -2,23 -13,27l-153 55c-11,4 -23,-1 -27,-12l0 0c-4,-11 2,-24 13,-28zm10 173l134 92c9,6 23,4 29,-6l0 0c7,-9 4,-23 -5,-29l-134 -92c-10,-7 -23,-4 -30,5l0 0c-6,10 -4,23 6,30zm-382 -332c58,-21 148,80 201,225 53,144 48,279 -10,300 -58,21 -148,-79 -200,-224 -53,-145 -49,-280 9,-301zm-173 493l87 238c8,23 -4,49 -27,58l0 0c-23,8 -49,-4 -58,-27l-86 -238 84 -31zm-191 -171l84 -31 64 177 -84 30c-49,18 -103,-7 -121,-56l0 0c-17,-48 8,-102 57,-120zm280 -235l-160 185 68 185 240 49c-43,-44 -84,-111 -113,-191 -30,-83 -42,-164 -35,-228z"/>
 </g>
</svg>
