<?xml version="1.0" encoding="UTF-8"?>
<!DOCTYPE svg PUBLIC "-//W3C//DTD SVG 1.1//EN" "http://www.w3.org/Graphics/SVG/1.1/DTD/svg11.dtd">
<!-- Creator: CorelDRAW X7 -->
<svg xmlns="http://www.w3.org/2000/svg" xml:space="preserve" width="215.9mm" height="279.4mm" version="1.1" style="shape-rendering:geometricPrecision; text-rendering:geometricPrecision; image-rendering:optimizeQuality; fill-rule:evenodd; clip-rule:evenodd"
viewBox="0 0 21590 27940"
 xmlns:xlink="http://www.w3.org/1999/xlink">
 <defs>
  <style type="text/css">
   <![CDATA[
    .fil0 {fill:#FF7800}
   ]]>
  </style>
 </defs>
 <g id="Capa_x0020_1">
  <metadata id="CorelCorpID_0Corel-Layer"/>
  <path class="fil0" d="M9672 15000l0 207 -147 77 0 -286 -224 -291 -16 0c-33,0 -59,-27 -59,-60l0 0c0,-32 26,-59 59,-59l630 0c33,0 60,27 60,59l0 0c0,33 -27,60 -60,60l-15 0 -228 293zm-57 -84c8,-8 21,-8 30,0 8,9 8,22 0,30 -9,9 -22,9 -30,0 -9,-8 -9,-21 0,-30zm43 -52l94 -118c7,-8 19,-10 27,-3l0 0c8,6 9,18 3,27l-95 118c-6,8 -18,10 -26,3l0 0c-8,-6 -10,-18 -3,-27zm-325 -159l529 0 -208 270 -109 0 -212 -270zm222 295l90 0 0 187 -90 44 0 -231zm-268 -383l628 0c18,0 32,14 32,31l0 0c0,18 -14,32 -32,32l-628 0c-17,0 -31,-14 -31,-32l0 0c0,-17 14,-31 31,-31z"/>
 </g>
</svg>
