<?xml version="1.0" encoding="UTF-8"?>
<!DOCTYPE svg PUBLIC "-//W3C//DTD SVG 1.1//EN" "http://www.w3.org/Graphics/SVG/1.1/DTD/svg11.dtd">
<!-- Creator: CorelDRAW X7 -->
<svg xmlns="http://www.w3.org/2000/svg" xml:space="preserve" width="215.9mm" height="279.4mm" version="1.1" style="shape-rendering:geometricPrecision; text-rendering:geometricPrecision; image-rendering:optimizeQuality; fill-rule:evenodd; clip-rule:evenodd"
viewBox="0 0 21590 27940"
 xmlns:xlink="http://www.w3.org/1999/xlink">
 <defs>
  <style type="text/css">
   <![CDATA[
    .fil0 {fill:#FF7800}
   ]]>
  </style>
 </defs>
 <g id="Capa_x0020_1">
  <metadata id="CorelCorpID_0Corel-Layer"/>
  <path class="fil0" d="M9860 16989l-133 -310 -72 0 -136 310 66 148 -41 86 289 3 -38 -89 65 -148zm92 -435c22,0 40,18 40,41 0,22 -18,40 -40,40 -17,0 -32,-11 -38,-26l-129 0c121,37 216,143 248,277l25 0c8,0 15,7 15,15l0 68c0,8 -7,15 -15,15l-71 0c-8,0 -14,-7 -14,-15l0 -68c0,-8 6,-15 14,-15l26 0c-35,-137 -139,-242 -268,-265 -3,7 -8,14 -14,20 -24,24 -62,24 -86,0 -6,-6 -10,-13 -13,-20 -129,24 -233,129 -268,265l28 0c8,0 14,7 14,15l0 68c0,8 -6,15 -14,15l-71 0c-8,0 -15,-7 -15,-15l0 -68c0,-8 7,-15 15,-15l23 0c32,-134 127,-240 248,-277l-118 0c-2,6 -5,13 -11,18 -15,16 -41,16 -57,0 -15,-15 -15,-41 0,-56 16,-16 42,-16 57,0 4,4 7,8 9,14l157 0c2,-11 8,-22 16,-30 24,-24 62,-24 86,0 9,8 14,19 17,30l165 0c4,-18 20,-31 39,-31zm0 17c13,0 23,11 23,24 0,13 -10,23 -23,23 -13,0 -24,-10 -24,-23 0,-13 11,-24 24,-24zm99 344l0 40c0,4 -3,8 -8,8l-41 0c-4,0 -8,-4 -8,-8l0 -40c0,-4 4,-8 8,-8l41 0c5,0 8,4 8,8zm-666 0l0 40c0,4 -4,8 -8,8l-41 0c-5,0 -8,-4 -8,-8l0 -40c0,-4 3,-8 8,-8l41 0c4,0 8,4 8,8zm66 -333c10,10 10,24 0,34 -9,9 -24,9 -33,0 -9,-10 -9,-24 0,-34 9,-9 24,-9 33,0zm262 -9c14,14 14,36 0,50 -14,14 -36,14 -50,0 -14,-14 -14,-36 0,-50 14,-14 36,-14 50,0zm-9 131l0 220c12,3 22,9 31,18 26,26 26,68 0,93 -26,26 -67,26 -93,0 -26,-25 -26,-67 0,-93 9,-9 19,-15 31,-18l0 -220 -6 0 -122 285 53 125 183 0 51 -125 -121 -285 -7 0zm12 257c15,15 15,40 0,55 -15,15 -40,15 -55,0 -15,-15 -15,-40 0,-55 15,-15 40,-15 55,0zm59 175l27 63 -226 0 24 -63 175 0z"/>
 </g>
</svg>
