<?xml version="1.0" encoding="UTF-8"?>
<!DOCTYPE svg PUBLIC "-//W3C//DTD SVG 1.1//EN" "http://www.w3.org/Graphics/SVG/1.1/DTD/svg11.dtd">
<!-- Creator: CorelDRAW X7 -->
<svg xmlns="http://www.w3.org/2000/svg" xml:space="preserve" width="215.9mm" height="279.4mm" version="1.1" style="shape-rendering:geometricPrecision; text-rendering:geometricPrecision; image-rendering:optimizeQuality; fill-rule:evenodd; clip-rule:evenodd"
viewBox="0 0 21590 27940"
 xmlns:xlink="http://www.w3.org/1999/xlink">
 <defs>
  <style type="text/css">
   <![CDATA[
    .fil0 {fill:#F58634}
   ]]>
  </style>
 </defs>
 <g id="Capa_x0020_1">
  <metadata id="CorelCorpID_0Corel-Layer"/>
  <path class="fil0" d="M9453 12765l345 -600c11,-18 35,-25 53,-14l77 44c19,11 25,35 15,53l-345 601 -155 101 10 -185zm347 -547l96 55 7 -13c10,-16 8,-36 -5,-43l-51 -29c-12,-7 -30,0 -40,17l-7 13zm82 80l-96 -55 -299 520 96 55 299 -520zm-321 541l-81 -47 -6 105 87 -58z"/>
 </g>
</svg>
