<?xml version="1.0" encoding="UTF-8"?>
<!DOCTYPE svg PUBLIC "-//W3C//DTD SVG 1.1//EN" "http://www.w3.org/Graphics/SVG/1.1/DTD/svg11.dtd">
<!-- Creator: CorelDRAW X7 -->
<svg xmlns="http://www.w3.org/2000/svg" xml:space="preserve" width="215.9mm" height="279.4mm" version="1.1" style="shape-rendering:geometricPrecision; text-rendering:geometricPrecision; image-rendering:optimizeQuality; fill-rule:evenodd; clip-rule:evenodd"
viewBox="0 0 21590 27940"
 xmlns:xlink="http://www.w3.org/1999/xlink">
 <defs>
  <style type="text/css">
   <![CDATA[
    .fil0 {fill:#F58634}
   ]]>
  </style>
 </defs>
 <g id="Capa_x0020_1">
  <metadata id="CorelCorpID_0Corel-Layer"/>
  <path class="fil0" d="M9401 15648l360 -262c-2,-1 -5,-1 -8,-1l-420 0c-18,0 -31,15 -31,35l0 345c0,5 0,9 2,14l0 38c-14,-5 -24,-20 -24,-37l0 -256c-19,2 -34,17 -34,35l0 278 593 0 0 -278c0,-6 -2,-13 -6,-18l32 0 0 378c0,21 -19,39 -42,39l-169 0 0 49c36,7 63,38 63,76l0 2 -10 0 -10 0 -317 0 -7 0 -14 0 0 -2c0,-39 29,-71 67,-76l0 -49 -164 0c-23,0 -42,-18 -42,-39l0 -382c0,-22 19,-39 42,-39l18 0 0 -100c0,-22 15,-40 34,-40l457 0c7,0 14,3 19,7l45 -33c13,-10 32,-7 42,6l41 56c10,13 7,32 -7,42l-105 77 0 267c0,16 -9,30 -22,36l0 -51 0 -45 0 -191 -306 224 -142 23 65 -128zm125 242l42 0c8,0 15,7 15,15l0 0c0,8 -7,14 -15,14l-42 0c-8,0 -14,-6 -14,-14l0 0c0,-8 6,-15 14,-15zm35 -153l168 0c8,0 15,7 15,15l0 0c0,8 -7,14 -15,14l-168 0c-8,0 -15,-6 -15,-14l0 0c0,-8 7,-15 15,-15zm90 -61l76 0c8,0 15,6 15,14l0 0c0,8 -7,14 -15,14l-76 0c-8,0 -14,-6 -14,-14l0 0c0,-8 6,-14 14,-14zm-300 -126l76 0c8,0 14,6 14,14l0 0c0,8 -6,14 -14,14l-76 0c-8,0 -14,-6 -14,-14l0 0c0,-8 6,-14 14,-14zm0 -64l169 0c7,0 14,6 14,14l0 0c0,8 -7,14 -14,14l-169 0c-8,0 -14,-6 -14,-14l0 0c0,-8 6,-14 14,-14zm0 -63l261 0c8,0 15,6 15,14l0 0c0,8 -7,14 -15,14l-261 0c-8,0 -14,-6 -14,-14l0 0c0,-8 6,-14 14,-14zm275 535l-172 0 0 48 172 0 0 -48zm63 102c-10,-19 -31,-32 -54,-32l-193 0c-24,0 -45,13 -55,32l302 0zm150 -192l-593 0 0 36c0,19 18,35 39,35l515 0c21,0 39,-16 39,-35l0 -36zm-34 -481c1,3 1,7 1,11l0 88 46 -34 -47 -65zm-21 115l0 -82c0,-8 -2,-15 -5,-20l-353 257 51 70 307 -225zm35 -132l51 69 9 -7c13,-8 17,-23 11,-32l-27 -37c-7,-9 -22,-9 -34,0l-10 7zm-364 364l-43 -58 -37 72 80 -14z"/>
 </g>
</svg>
